<?xml version="1.0" standalone="no"?>
<!DOCTYPE svg PUBLIC "-//W3C//DTD SVG 20010904//EN"
 "http://www.w3.org/TR/2001/REC-SVG-20010904/DTD/svg10.dtd">
<svg version="1.0" xmlns="http://www.w3.org/2000/svg"
 width="209.000000pt" height="448.000000pt" viewBox="0 0 209.000000 448.000000"
 preserveAspectRatio="xMidYMid meet">

<g transform="translate(0.000000,448.000000) scale(0.100000,-0.100000)"
fill="#000000" stroke="none">
<path d="M903 4319 c-199 -63 -322 -279 -279 -488 36 -174 172 -303 350 -334
277 -47 531 202 486 478 -43 268 -298 426 -557 344z"/>
<path d="M940 3266 c-111 -24 -223 -102 -276 -192 -14 -23 -151 -419 -304
-878 l-278 -836 319 0 319 0 0 -640 0 -640 320 0 320 0 0 640 0 640 319 0 319
0 -278 836 c-197 591 -288 850 -311 885 -97 152 -283 226 -469 185z"/>
</g>
</svg>
