<?xml version="1.0" standalone="no"?>
<!DOCTYPE svg PUBLIC "-//W3C//DTD SVG 20010904//EN"
 "http://www.w3.org/TR/2001/REC-SVG-20010904/DTD/svg10.dtd">
<svg version="1.0" xmlns="http://www.w3.org/2000/svg"
 width="512.000000pt" height="512.000000pt" viewBox="0 0 512.000000 512.000000"
 preserveAspectRatio="xMidYMid meet">

<g transform="translate(0.000000,512.000000) scale(0.100000,-0.100000)"
fill="#000000" stroke="none">
<path d="M3367 4625 c-411 -78 -727 -369 -837 -770 -27 -97 -39 -345 -21 -439
6 -33 9 -61 7 -63 -7 -7 -234 17 -356 38 -651 111 -1266 454 -1713 954 -45 50
-85 92 -89 93 -13 6 -74 -134 -103 -234 -86 -298 -36 -609 141 -876 52 -78
164 -196 233 -246 l44 -32 -44 0 c-92 0 -246 42 -377 101 -24 11 -45 19 -46
17 -8 -10 16 -201 34 -271 26 -102 113 -281 179 -368 136 -178 357 -329 558
-379 29 -8 50 -17 48 -21 -11 -16 -185 -31 -313 -27 l-134 6 7 -27 c10 -40 78
-172 124 -239 167 -246 470 -426 754 -449 42 -3 77 -10 77 -14 0 -5 -55 -45
-121 -89 -196 -129 -421 -230 -634 -284 -213 -53 -275 -60 -531 -61 l-241 0
31 -21 c175 -117 485 -254 745 -329 282 -81 505 -110 836 -109 265 0 387 12
620 59 1249 252 2184 1295 2336 2605 6 52 12 176 14 275 l4 180 64 50 c111 88
191 163 273 256 80 93 177 219 171 225 -2 2 -46 -13 -97 -32 -115 -43 -252
-80 -382 -104 -54 -10 -98 -16 -98 -15 0 1 30 25 68 53 92 69 199 182 258 272
45 69 114 212 114 235 0 6 -64 -21 -142 -60 -144 -70 -310 -131 -446 -161
l-73 -16 -57 54 c-118 113 -280 201 -450 245 -124 32 -319 40 -435 18z"/>
</g>
</svg>
